<?xml version="1.0" encoding="UTF-8" standalone="no"?>
<!DOCTYPE svg PUBLIC "-//W3C//DTD SVG 1.1//EN"
 "http://www.w3.org/Graphics/SVG/1.1/DTD/svg11.dtd">
<!-- Generated by graphviz version 2.36.0 (20140111.2315)
 -->
<!-- Title: inheritance5c7cd474e2 Pages: 1 -->
<svg width="352pt" height="433pt"
 viewBox="0.00 0.00 352.00 433.00" xmlns="http://www.w3.org/2000/svg" xmlns:xlink="http://www.w3.org/1999/xlink">
<g id="graph0" class="graph" transform="scale(1 1) rotate(0) translate(4 429)">
<title>inheritance5c7cd474e2</title>
<polygon fill="white" stroke="none" points="-4,4 -4,-429 348,-429 348,4 -4,4"/>
<!-- Aperture -->
<g id="node1" class="node"><title>Aperture</title>
<g id="a_node1"><a xlink:href="../api/photutils.aperture_core.Aperture.html#photutils.aperture_core.Aperture" xlink:title="Abstract base class for all apertures.">
<polygon fill="none" stroke="black" stroke-width="0.5" points="59.5,-221.5 0.5,-221.5 0.5,-202.5 59.5,-202.5 59.5,-221.5"/>
<text text-anchor="middle" x="30" y="-209.5" font-family="Vera Sans, DejaVu Sans, Liberation Sans, Arial, Helvetica, sans" font-size="10.00">Aperture</text>
</a>
</g>
</g>
<!-- PixelAperture -->
<g id="node3" class="node"><title>PixelAperture</title>
<g id="a_node3"><a xlink:href="../api/photutils.aperture_core.PixelAperture.html#photutils.aperture_core.PixelAperture" xlink:title="Abstract base class for 2&#45;d apertures defined in pixel coordinates.">
<polygon fill="none" stroke="black" stroke-width="0.5" points="176,-314.5 96,-314.5 96,-295.5 176,-295.5 176,-314.5"/>
<text text-anchor="middle" x="136" y="-302.5" font-family="Vera Sans, DejaVu Sans, Liberation Sans, Arial, Helvetica, sans" font-size="10.00">PixelAperture</text>
</a>
</g>
</g>
<!-- Aperture&#45;&gt;PixelAperture -->
<g id="edge5" class="edge"><title>Aperture&#45;&gt;PixelAperture</title>
<path fill="none" stroke="black" stroke-width="0.5" d="M41.3521,-221.257C60.022,-237.952 99.363,-273.132 120.629,-292.149"/>
<polygon fill="black" stroke="black" stroke-width="0.5" points="119.486,-293.475 124.38,-295.503 121.819,-290.866 119.486,-293.475"/>
</g>
<!-- SkyAperture -->
<g id="node9" class="node"><title>SkyAperture</title>
<g id="a_node9"><a xlink:href="../api/photutils.aperture_core.SkyAperture.html#photutils.aperture_core.SkyAperture" xlink:title="Abstract base class for 2&#45;d apertures defined in celestial coordinates.">
<polygon fill="none" stroke="black" stroke-width="0.5" points="174,-129.5 98,-129.5 98,-110.5 174,-110.5 174,-129.5"/>
<text text-anchor="middle" x="136" y="-117.5" font-family="Vera Sans, DejaVu Sans, Liberation Sans, Arial, Helvetica, sans" font-size="10.00">SkyAperture</text>
</a>
</g>
</g>
<!-- Aperture&#45;&gt;SkyAperture -->
<g id="edge8" class="edge"><title>Aperture&#45;&gt;SkyAperture</title>
<path fill="none" stroke="black" stroke-width="0.5" d="M41.7381,-202.501C60.5187,-185.887 99.3403,-151.545 120.492,-132.834"/>
<polygon fill="black" stroke="black" stroke-width="0.5" points="121.89,-133.934 124.475,-129.31 119.571,-131.313 121.89,-133.934"/>
</g>
<!-- CircularAnnulus -->
<g id="node2" class="node"><title>CircularAnnulus</title>
<g id="a_node2"><a xlink:href="../api/photutils.aperture_core.CircularAnnulus.html#photutils.aperture_core.CircularAnnulus" xlink:title="Circular annulus aperture(s), defined in pixel coordinates.">
<polygon fill="none" stroke="black" stroke-width="0.5" points="323.5,-425.5 232.5,-425.5 232.5,-406.5 323.5,-406.5 323.5,-425.5"/>
<text text-anchor="middle" x="278" y="-413.5" font-family="Vera Sans, DejaVu Sans, Liberation Sans, Arial, Helvetica, sans" font-size="10.00">CircularAnnulus</text>
</a>
</g>
</g>
<!-- PixelAperture&#45;&gt;CircularAnnulus -->
<g id="edge1" class="edge"><title>PixelAperture&#45;&gt;CircularAnnulus</title>
<path fill="none" stroke="black" stroke-width="0.5" d="M142.042,-314.398C152.525,-333.036 178.512,-374.79 212,-397 216.726,-400.134 221.979,-402.762 227.392,-404.963"/>
<polygon fill="black" stroke="black" stroke-width="0.5" points="227.102,-406.725 232.397,-406.866 228.346,-403.453 227.102,-406.725"/>
</g>
<!-- CircularAperture -->
<g id="node4" class="node"><title>CircularAperture</title>
<g id="a_node4"><a xlink:href="../api/photutils.aperture_core.CircularAperture.html#photutils.aperture_core.CircularAperture" xlink:title="Circular aperture(s), defined in pixel coordinates.">
<polygon fill="none" stroke="black" stroke-width="0.5" points="325.5,-388.5 230.5,-388.5 230.5,-369.5 325.5,-369.5 325.5,-388.5"/>
<text text-anchor="middle" x="278" y="-376.5" font-family="Vera Sans, DejaVu Sans, Liberation Sans, Arial, Helvetica, sans" font-size="10.00">CircularAperture</text>
</a>
</g>
</g>
<!-- PixelAperture&#45;&gt;CircularAperture -->
<g id="edge2" class="edge"><title>PixelAperture&#45;&gt;CircularAperture</title>
<path fill="none" stroke="black" stroke-width="0.5" d="M147.401,-314.486C161.213,-326.624 186.807,-347.563 212,-360 218.339,-363.129 225.285,-365.836 232.205,-368.148"/>
<polygon fill="black" stroke="black" stroke-width="0.5" points="231.687,-369.819 236.983,-369.685 232.759,-366.487 231.687,-369.819"/>
</g>
<!-- EllipticalAnnulus -->
<g id="node5" class="node"><title>EllipticalAnnulus</title>
<g id="a_node5"><a xlink:href="../api/photutils.aperture_core.EllipticalAnnulus.html#photutils.aperture_core.EllipticalAnnulus" xlink:title="Elliptical annulus aperture(s), defined in pixel coordinates.">
<polygon fill="none" stroke="black" stroke-width="0.5" points="324.5,-351.5 231.5,-351.5 231.5,-332.5 324.5,-332.5 324.5,-351.5"/>
<text text-anchor="middle" x="278" y="-339.5" font-family="Vera Sans, DejaVu Sans, Liberation Sans, Arial, Helvetica, sans" font-size="10.00">EllipticalAnnulus</text>
</a>
</g>
</g>
<!-- PixelAperture&#45;&gt;EllipticalAnnulus -->
<g id="edge3" class="edge"><title>PixelAperture&#45;&gt;EllipticalAnnulus</title>
<path fill="none" stroke="black" stroke-width="0.5" d="M172.328,-314.337C191.893,-319.507 216.292,-325.956 236.611,-331.326"/>
<polygon fill="black" stroke="black" stroke-width="0.5" points="236.402,-333.081 241.683,-332.666 237.297,-329.697 236.402,-333.081"/>
</g>
<!-- EllipticalAperture -->
<g id="node6" class="node"><title>EllipticalAperture</title>
<g id="a_node6"><a xlink:href="../api/photutils.aperture_core.EllipticalAperture.html#photutils.aperture_core.EllipticalAperture" xlink:title="Elliptical aperture(s), defined in pixel coordinates.">
<polygon fill="none" stroke="black" stroke-width="0.5" points="326.5,-314.5 229.5,-314.5 229.5,-295.5 326.5,-295.5 326.5,-314.5"/>
<text text-anchor="middle" x="278" y="-302.5" font-family="Vera Sans, DejaVu Sans, Liberation Sans, Arial, Helvetica, sans" font-size="10.00">EllipticalAperture</text>
</a>
</g>
</g>
<!-- PixelAperture&#45;&gt;EllipticalAperture -->
<g id="edge4" class="edge"><title>PixelAperture&#45;&gt;EllipticalAperture</title>
<path fill="none" stroke="black" stroke-width="0.5" d="M176.37,-305C191.193,-305 208.299,-305 224.154,-305"/>
<polygon fill="black" stroke="black" stroke-width="0.5" points="224.477,-306.75 229.477,-305 224.477,-303.25 224.477,-306.75"/>
</g>
<!-- RectangularAnnulus -->
<g id="node7" class="node"><title>RectangularAnnulus</title>
<g id="a_node7"><a xlink:href="../api/photutils.aperture_core.RectangularAnnulus.html#photutils.aperture_core.RectangularAnnulus" xlink:title="Rectangular annulus aperture(s), defined in pixel coordinates.">
<polygon fill="none" stroke="black" stroke-width="0.5" points="333.5,-277.5 222.5,-277.5 222.5,-258.5 333.5,-258.5 333.5,-277.5"/>
<text text-anchor="middle" x="278" y="-265.5" font-family="Vera Sans, DejaVu Sans, Liberation Sans, Arial, Helvetica, sans" font-size="10.00">RectangularAnnulus</text>
</a>
</g>
</g>
<!-- PixelAperture&#45;&gt;RectangularAnnulus -->
<g id="edge6" class="edge"><title>PixelAperture&#45;&gt;RectangularAnnulus</title>
<path fill="none" stroke="black" stroke-width="0.5" d="M172.328,-295.663C191.893,-290.493 216.292,-284.044 236.611,-278.674"/>
<polygon fill="black" stroke="black" stroke-width="0.5" points="237.297,-280.303 241.683,-277.334 236.402,-276.919 237.297,-280.303"/>
</g>
<!-- RectangularAperture -->
<g id="node8" class="node"><title>RectangularAperture</title>
<g id="a_node8"><a xlink:href="../api/photutils.aperture_core.RectangularAperture.html#photutils.aperture_core.RectangularAperture" xlink:title="Rectangular aperture(s), defined in pixel coordinates.">
<polygon fill="none" stroke="black" stroke-width="0.5" points="335.5,-240.5 220.5,-240.5 220.5,-221.5 335.5,-221.5 335.5,-240.5"/>
<text text-anchor="middle" x="278" y="-228.5" font-family="Vera Sans, DejaVu Sans, Liberation Sans, Arial, Helvetica, sans" font-size="10.00">RectangularAperture</text>
</a>
</g>
</g>
<!-- PixelAperture&#45;&gt;RectangularAperture -->
<g id="edge7" class="edge"><title>PixelAperture&#45;&gt;RectangularAperture</title>
<path fill="none" stroke="black" stroke-width="0.5" d="M147.401,-295.514C161.213,-283.376 186.807,-262.437 212,-250 218.339,-246.871 225.285,-244.164 232.205,-241.852"/>
<polygon fill="black" stroke="black" stroke-width="0.5" points="232.759,-243.513 236.983,-240.315 231.687,-240.181 232.759,-243.513"/>
</g>
<!-- SkyCircularAnnulus -->
<g id="node10" class="node"><title>SkyCircularAnnulus</title>
<g id="a_node10"><a xlink:href="../api/photutils.aperture_core.SkyCircularAnnulus.html#photutils.aperture_core.SkyCircularAnnulus" xlink:title="Circular annulus aperture(s), defined in sky coordinates.">
<polygon fill="none" stroke="black" stroke-width="0.5" points="332,-203.5 224,-203.5 224,-184.5 332,-184.5 332,-203.5"/>
<text text-anchor="middle" x="278" y="-191.5" font-family="Vera Sans, DejaVu Sans, Liberation Sans, Arial, Helvetica, sans" font-size="10.00">SkyCircularAnnulus</text>
</a>
</g>
</g>
<!-- SkyAperture&#45;&gt;SkyCircularAnnulus -->
<g id="edge9" class="edge"><title>SkyAperture&#45;&gt;SkyCircularAnnulus</title>
<path fill="none" stroke="black" stroke-width="0.5" d="M147.401,-129.486C161.213,-141.624 186.807,-162.563 212,-175 218.339,-178.129 225.285,-180.836 232.205,-183.148"/>
<polygon fill="black" stroke="black" stroke-width="0.5" points="231.687,-184.819 236.983,-184.685 232.759,-181.487 231.687,-184.819"/>
</g>
<!-- SkyCircularAperture -->
<g id="node11" class="node"><title>SkyCircularAperture</title>
<g id="a_node11"><a xlink:href="../api/photutils.aperture_core.SkyCircularAperture.html#photutils.aperture_core.SkyCircularAperture" xlink:title="Circular aperture(s), defined in sky coordinates.">
<polygon fill="none" stroke="black" stroke-width="0.5" points="334,-166.5 222,-166.5 222,-147.5 334,-147.5 334,-166.5"/>
<text text-anchor="middle" x="278" y="-154.5" font-family="Vera Sans, DejaVu Sans, Liberation Sans, Arial, Helvetica, sans" font-size="10.00">SkyCircularAperture</text>
</a>
</g>
</g>
<!-- SkyAperture&#45;&gt;SkyCircularAperture -->
<g id="edge10" class="edge"><title>SkyAperture&#45;&gt;SkyCircularAperture</title>
<path fill="none" stroke="black" stroke-width="0.5" d="M172.328,-129.337C191.893,-134.507 216.292,-140.956 236.611,-146.326"/>
<polygon fill="black" stroke="black" stroke-width="0.5" points="236.402,-148.081 241.683,-147.666 237.297,-144.697 236.402,-148.081"/>
</g>
<!-- SkyEllipticalAnnulus -->
<g id="node12" class="node"><title>SkyEllipticalAnnulus</title>
<g id="a_node12"><a xlink:href="../api/photutils.aperture_core.SkyEllipticalAnnulus.html#photutils.aperture_core.SkyEllipticalAnnulus" xlink:title="Elliptical annulus aperture(s), defined in sky coordinates.">
<polygon fill="none" stroke="black" stroke-width="0.5" points="333,-129.5 223,-129.5 223,-110.5 333,-110.5 333,-129.5"/>
<text text-anchor="middle" x="278" y="-117.5" font-family="Vera Sans, DejaVu Sans, Liberation Sans, Arial, Helvetica, sans" font-size="10.00">SkyEllipticalAnnulus</text>
</a>
</g>
</g>
<!-- SkyAperture&#45;&gt;SkyEllipticalAnnulus -->
<g id="edge11" class="edge"><title>SkyAperture&#45;&gt;SkyEllipticalAnnulus</title>
<path fill="none" stroke="black" stroke-width="0.5" d="M174.15,-120C187.425,-120 202.738,-120 217.426,-120"/>
<polygon fill="black" stroke="black" stroke-width="0.5" points="217.804,-121.75 222.803,-120 217.803,-118.25 217.804,-121.75"/>
</g>
<!-- SkyEllipticalAperture -->
<g id="node13" class="node"><title>SkyEllipticalAperture</title>
<g id="a_node13"><a xlink:href="../api/photutils.aperture_core.SkyEllipticalAperture.html#photutils.aperture_core.SkyEllipticalAperture" xlink:title="Elliptical aperture(s), defined in sky coordinates.">
<polygon fill="none" stroke="black" stroke-width="0.5" points="335,-92.5 221,-92.5 221,-73.5 335,-73.5 335,-92.5"/>
<text text-anchor="middle" x="278" y="-80.5" font-family="Vera Sans, DejaVu Sans, Liberation Sans, Arial, Helvetica, sans" font-size="10.00">SkyEllipticalAperture</text>
</a>
</g>
</g>
<!-- SkyAperture&#45;&gt;SkyEllipticalAperture -->
<g id="edge12" class="edge"><title>SkyAperture&#45;&gt;SkyEllipticalAperture</title>
<path fill="none" stroke="black" stroke-width="0.5" d="M172.328,-110.663C191.893,-105.493 216.292,-99.0442 236.611,-93.6742"/>
<polygon fill="black" stroke="black" stroke-width="0.5" points="237.297,-95.3032 241.683,-92.3337 236.402,-91.9194 237.297,-95.3032"/>
</g>
<!-- SkyRectangularAnnulus -->
<g id="node14" class="node"><title>SkyRectangularAnnulus</title>
<g id="a_node14"><a xlink:href="../api/photutils.aperture_core.SkyRectangularAnnulus.html#photutils.aperture_core.SkyRectangularAnnulus" xlink:title="Rectangular annulus aperture(s), defined in sky coordinates.">
<polygon fill="none" stroke="black" stroke-width="0.5" points="342,-55.5 214,-55.5 214,-36.5 342,-36.5 342,-55.5"/>
<text text-anchor="middle" x="278" y="-43.5" font-family="Vera Sans, DejaVu Sans, Liberation Sans, Arial, Helvetica, sans" font-size="10.00">SkyRectangularAnnulus</text>
</a>
</g>
</g>
<!-- SkyAperture&#45;&gt;SkyRectangularAnnulus -->
<g id="edge13" class="edge"><title>SkyAperture&#45;&gt;SkyRectangularAnnulus</title>
<path fill="none" stroke="black" stroke-width="0.5" d="M147.401,-110.514C161.213,-98.376 186.807,-77.4368 212,-65 218.339,-61.8709 225.285,-59.1635 232.205,-56.8524"/>
<polygon fill="black" stroke="black" stroke-width="0.5" points="232.759,-58.5125 236.983,-55.3155 231.687,-55.1807 232.759,-58.5125"/>
</g>
<!-- SkyRectangularAperture -->
<g id="node15" class="node"><title>SkyRectangularAperture</title>
<g id="a_node15"><a xlink:href="../api/photutils.aperture_core.SkyRectangularAperture.html#photutils.aperture_core.SkyRectangularAperture" xlink:title="Rectangular aperture(s), defined in sky coordinates.">
<polygon fill="none" stroke="black" stroke-width="0.5" points="344,-18.5 212,-18.5 212,0.5 344,0.5 344,-18.5"/>
<text text-anchor="middle" x="278" y="-6.5" font-family="Vera Sans, DejaVu Sans, Liberation Sans, Arial, Helvetica, sans" font-size="10.00">SkyRectangularAperture</text>
</a>
</g>
</g>
<!-- SkyAperture&#45;&gt;SkyRectangularAperture -->
<g id="edge14" class="edge"><title>SkyAperture&#45;&gt;SkyRectangularAperture</title>
<path fill="none" stroke="black" stroke-width="0.5" d="M142.042,-110.602C152.525,-91.9643 178.512,-50.2101 212,-28 216.651,-24.9154 221.812,-22.3214 227.134,-20.1422"/>
<polygon fill="black" stroke="black" stroke-width="0.5" points="228.014,-21.679 232.057,-18.2554 226.762,-18.4109 228.014,-21.679"/>
</g>
</g>
</svg>
